HIERARCHY
ROOT Hips
{
  OFFSET 5.72205e-005 65.662 3.42586
  CHANNELS 6 Xposition Yposition Zposition Zrotation Xrotation Yrotation
  JOINT Chest
  {
    OFFSET 0 8.7983 -4.7612
    CHANNELS 3 Zrotation Xrotation Yrotation
    JOINT Chest2
    {
      OFFSET 0 8.0291 0.4195
      CHANNELS 3 Zrotation Xrotation Yrotation
      JOINT Chest3
      {
        OFFSET 0 9.9351 -2.2114
        CHANNELS 3 Zrotation Xrotation Yrotation
        JOINT Neck
        {
          OFFSET 0 22.3885 -0.4656
          CHANNELS 3 Zrotation Xrotation Yrotation
          JOINT Head
          {
            OFFSET -0.0001 12.643 3.4389
            CHANNELS 3 Zrotation Xrotation Yrotation
            End Site
            {
              OFFSET 0.0001 17.6655 0.5274
            }
          }
        }
        JOINT LeftCollar
        {
          OFFSET 2.2603 21.606 7.4023
          CHANNELS 3 Zrotation Xrotation Yrotation
          JOINT LeftShoulder
          {
            OFFSET 13.5163 -1.1332 -5.0146
            CHANNELS 3 Zrotation Xrotation Yrotation
            JOINT LeftElbow
            {
              OFFSET -0.0995 -28.05 -0.2431
              CHANNELS 3 Zrotation Xrotation Yrotation
              JOINT LeftWrist
              {
                OFFSET 0.0679 -23.3996 -0.1402
                CHANNELS 3 Zrotation Xrotation Yrotation
                JOINT LeftFinger1
                {
                  OFFSET 0.7932 -9.069 2.5189
                  CHANNELS 3 Zrotation Xrotation Yrotation
                  JOINT LeftFinger11
                  {
                    OFFSET -0.8272 -3.3923 0.5977
                    CHANNELS 3 Zrotation Xrotation Yrotation
                    JOINT LeftFinger12
                    {
                      OFFSET -0.5649 -2.3158 0.4082
                      CHANNELS 3 Zrotation Xrotation Yrotation
                      End Site
                      {
                        OFFSET -0.4919 -1.6479 0.2673
                      }
                    }
                  }
                }
                JOINT LeftFinger2
                {
                  OFFSET 0.9159 -9.2044 0.2193
                  CHANNELS 3 Zrotation Xrotation Yrotation
                  JOINT LeftFinger21
                  {
                    OFFSET 0.0117 -4.1944 -0.0248
                    CHANNELS 3 Zrotation Xrotation Yrotation
                    JOINT LeftFinger22
                    {
                      OFFSET 0.0071 -2.3249 -0.0142
                      CHANNELS 3 Zrotation Xrotation Yrotation
                      End Site
                      {
                        OFFSET -0.1475 -2.0882 0.0028
                      }
                    }
                  }
                }
                JOINT LeftFinger3
                {
                  OFFSET 0.6113 -8.7231 -2.0637
                  CHANNELS 3 Zrotation Xrotation Yrotation
                  JOINT LeftFinger31
                  {
                    OFFSET -0.1927 -3.8059 -0.2383
                    CHANNELS 3 Zrotation Xrotation Yrotation
                    JOINT LeftFinger32
                    {
                      OFFSET -0.1091 -2.1688 -0.1362
                      CHANNELS 3 Zrotation Xrotation Yrotation
                      End Site
                      {
                        OFFSET -0.2358 -1.9176 -0.0906
                      }
                    }
                  }
                }
                JOINT LeftFinger4
                {
                  OFFSET -0.6151 -8.0947 -3.5641
                  CHANNELS 3 Zrotation Xrotation Yrotation
                  JOINT LeftFinger41
                  {
                    OFFSET -0.4882 -2.341 -0.6462
                    CHANNELS 3 Zrotation Xrotation Yrotation
                    JOINT LeftFinger42
                    {
                      OFFSET -0.3575 -1.7167 -0.4742
                      CHANNELS 3 Zrotation Xrotation Yrotation
                      End Site
                      {
                        OFFSET -0.4187 -1.5237 -0.3496
                      }
                    }
                  }
                }
                JOINT LeftFinger0
                {
                  OFFSET -1.42 -1.8761 1.4223
                  CHANNELS 3 Zrotation Xrotation Yrotation
                  JOINT LeftFinger01
                  {
                    OFFSET -1.1471 -3.4929 2.6334
                    CHANNELS 3 Zrotation Xrotation Yrotation
                    JOINT LeftFinger02
                    {
                      OFFSET -0.823 -2.3 1.6571
                      CHANNELS 3 Zrotation Xrotation Yrotation
                      End Site
                      {
                        OFFSET -0.5822 -1.6914 1.1582
                      }
                    }
                  }
                }
              }
            }
          }
        }
        JOINT RightCollar
        {
          OFFSET -2.2603 21.606 7.4023
          CHANNELS 3 Zrotation Xrotation Yrotation
          JOINT RightShoulder
          {
            OFFSET -13.5187 -1.1334 -5.0155
            CHANNELS 3 Zrotation Xrotation Yrotation
            JOINT RightElbow
            {
              OFFSET 0.0994 -28.0499 -0.2431
              CHANNELS 3 Zrotation Xrotation Yrotation
              JOINT RightWrist
              {
                OFFSET -0.0679 -23.3996 -0.1402
                CHANNELS 3 Zrotation Xrotation Yrotation
                JOINT RightFinger1
                {
                  OFFSET -0.7932 -9.0691 2.5189
                  CHANNELS 3 Zrotation Xrotation Yrotation
                  JOINT RightFinger11
                  {
                    OFFSET 0.8272 -3.3923 0.5977
                    CHANNELS 3 Zrotation Xrotation Yrotation
                    JOINT RightFinger12
                    {
                      OFFSET 0.565 -2.3158 0.4082
                      CHANNELS 3 Zrotation Xrotation Yrotation
                      End Site
                      {
                        OFFSET 0.4919 -1.6479 0.2673
                      }
                    }
                  }
                }
                JOINT RightFinger2
                {
                  OFFSET -0.916 -9.2044 0.2193
                  CHANNELS 3 Zrotation Xrotation Yrotation
                  JOINT RightFinger21
                  {
                    OFFSET -0.0117 -4.1944 -0.0248
                    CHANNELS 3 Zrotation Xrotation Yrotation
                    JOINT RightFinger22
                    {
                      OFFSET -0.0071 -2.3249 -0.0142
                      CHANNELS 3 Zrotation Xrotation Yrotation
                      End Site
                      {
                        OFFSET 0.1475 -2.0882 0.0028
                      }
                    }
                  }
                }
                JOINT RightFinger3
                {
                  OFFSET -0.6113 -8.7231 -2.0637
                  CHANNELS 3 Zrotation Xrotation Yrotation
                  JOINT RightFinger31
                  {
                    OFFSET 0.1927 -3.8059 -0.2383
                    CHANNELS 3 Zrotation Xrotation Yrotation
                    JOINT RightFinger32
                    {
                      OFFSET 0.1091 -2.1688 -0.1362
                      CHANNELS 3 Zrotation Xrotation Yrotation
                      End Site
                      {
                        OFFSET 0.2358 -1.9176 -0.0906
                      }
                    }
                  }
                }
                JOINT RightFinger4
                {
                  OFFSET 0.6151 -8.0947 -3.564
                  CHANNELS 3 Zrotation Xrotation Yrotation
                  JOINT RightFinger41
                  {
                    OFFSET 0.4882 -2.341 -0.6462
                    CHANNELS 3 Zrotation Xrotation Yrotation
                    JOINT RightFinger42
                    {
                      OFFSET 0.3574 -1.7166 -0.4742
                      CHANNELS 3 Zrotation Xrotation Yrotation
                      End Site
                      {
                        OFFSET 0.4187 -1.5237 -0.3496
                      }
                    }
                  }
                }
                JOINT RightFinger0
                {
                  OFFSET 1.4199 -1.8761 1.4221
                  CHANNELS 3 Zrotation Xrotation Yrotation
                  JOINT RightFinger01
                  {
                    OFFSET 1.1472 -3.4929 2.6336
                    CHANNELS 3 Zrotation Xrotation Yrotation
                    JOINT RightFinger02
                    {
                      OFFSET 0.8229 -2.3 1.6571
                      CHANNELS 3 Zrotation Xrotation Yrotation
                      End Site
                      {
                        OFFSET 0.5822 -1.6914 1.1582
                      }
                    }
                  }
                }
              }
            }
          }
        }
      }
    }
  }
  JOINT RightHip
  {
    OFFSET -9.412 3.9771 -0.7758
    CHANNELS 3 Zrotation Xrotation Yrotation
    JOINT RightKnee
    {
      OFFSET -0.7531 -40.938 0
      CHANNELS 3 Zrotation Xrotation Yrotation
      JOINT RightAnkle
      {
        OFFSET 0 -40.1986 0
        CHANNELS 3 Zrotation Xrotation Yrotation
        JOINT RightToe
        {
          OFFSET 0 -4.4182 9.239
          CHANNELS 3 Zrotation Xrotation Yrotation
          End Site
          {
            OFFSET 0 0 6.1981
          }
        }
      }
    }
  }
  JOINT LeftHip
  {
    OFFSET 9.4119 3.9773 -0.7758
    CHANNELS 3 Zrotation Xrotation Yrotation
    JOINT LeftKnee
    {
      OFFSET 0.7532 -40.9383 0
      CHANNELS 3 Zrotation Xrotation Yrotation
      JOINT LeftAnkle
      {
        OFFSET 0 -40.1986 0
        CHANNELS 3 Zrotation Xrotation Yrotation
        JOINT LeftToe
        {
          OFFSET 0 -4.4182 9.239
          CHANNELS 3 Zrotation Xrotation Yrotation
          End Site
          {
            OFFSET 0 0 6.1981
          }
        }
      }
    }
  }
}
MOTION
Frames:	4
Frame Time:	0.0333333
39.7564 -6.0917 47.395 6.03725e-007 74.798 -5.18743e-007 -0.269185 1.51429 -0.197383 -0.533427 3.02951 -0.387847 -0.533427 3.02952 -0.387848 -1.84207e-005 -24.0062 -1.13975e-005 -0.0600563 -22.3427 -0.0243361 3.30275 3.06411 -14.9877 56.7852 -18.4423 62.3219 107.225 -59.6923 76.9537 -0.395635 6.12998 5.97414 -1.12489e-005 4.65083e-006 7.68272e-006 -7.95139e-016 6.36111e-015 1.19271e-015 -7.95139e-016 6.36111e-015 1.98785e-015 -1.12489e-005 4.65083e-006 7.68272e-006 -0.0128159 0.00231261 8.14373e-005 -6.59023e-006 8.58944e-006 6.42662e-006 -1.12489e-005 4.65083e-006 7.68272e-006 -0.0160526 0.00299209 0.000860765 -8.82781e-032 6.36111e-015 7.95139e-016 -1.12489e-005 4.65083e-006 7.68272e-006 -0.0125719 0.00311682 0.00282436 1.59028e-015 3.18055e-015 -1.19271e-015 -1.12489e-005 4.65083e-006 7.68272e-006 -7.95139e-016 6.36111e-015 1.19271e-015 -7.95139e-016 6.36111e-015 1.98785e-015 4.55929 -0.808957 1.78762 -45.4899 -28.3958 -50.3169 -107.299 -55.1551 -78.213 6.21506 2.46843 1.64182 -7.95139e-016 -6.36111e-015 1.19271e-015 8.82781e-032 -3.18055e-015 1.59028e-015 7.95139e-016 -3.18055e-015 3.97569e-016 -7.95139e-016 -6.36111e-015 1.19271e-015 0.0129517 0.00232025 -8.85138e-005 3.97569e-016 -3.18055e-015 7.95139e-016 -7.95139e-016 -6.36111e-015 1.19271e-015 0.0163308 0.00304537 -0.000871124 1.1789e-007 1.2127e-006 -1.84448e-006 -7.95139e-016 -6.36111e-015 1.19271e-015 0.0146284 0.00369363 -0.00326937 -1.19271e-015 1.27222e-014 7.95139e-016 -7.95139e-016 -6.36111e-015 1.19271e-015 8.82781e-032 -3.18055e-015 1.59028e-015 7.95139e-016 -3.18055e-015 3.97569e-016 -36.5768 6.75829 -47.6597 9.72206 30.1592 -20.87 -5.63662 44.0148 15.9413 2.34133e-006 1.99954e-006 -3.76175e-008 29.7867 9.37255 47.4113 -7.49561 24.461 19.9609 4.49978 43.7012 -14.1244 -1.05352e-005 1.20049e-005 1.30221e-005 
39.757 -6.11405 47.3863 7.53052e-008 74.5978 -8.09274e-008 -0.268545 1.60083 -0.19602 -0.531918 3.20253 -0.384753 -0.531919 3.20257 -0.384754 8.56968e-006 -24.0063 5.01605e-006 -0.0600581 -22.3427 -0.0243367 2.84959 2.90428 -14.7488 57.315 -19.2716 62.4315 106.748 -59.707 76.5464 -0.697738 5.84549 5.27933 9.08075e-006 7.37529e-008 -2.33923e-007 1.59028e-015 6.36111e-015 -1.19271e-015 -9.08075e-006 -7.37529e-008 2.33923e-007 9.08075e-006 7.37529e-008 -2.33923e-007 -0.0128289 0.00232041 8.58733e-005 1.47058e-006 5.00376e-006 9.87513e-008 9.08075e-006 7.37529e-008 -2.33923e-007 -0.0160444 0.00299272 0.000852815 -1.10348e-031 3.18055e-015 1.98785e-015 9.08075e-006 7.37529e-008 -2.33923e-007 -0.0126108 0.003135 0.00282759 8.49694e-006 -8.1748e-006 3.91942e-007 9.08075e-006 7.37529e-008 -2.33923e-007 1.59028e-015 6.36111e-015 -1.19271e-015 -9.08075e-006 -7.37529e-008 2.33923e-007 4.74973 -0.774664 1.89994 -45.8189 -28.7222 -50.4757 -107.035 -55.1243 -77.992 6.22463 2.40552 1.95087 3.97569e-016 1.27222e-014 1.19271e-015 -4.41391e-032 6.36111e-015 3.97569e-016 -3.97569e-016 9.54166e-015 1.19271e-015 3.97569e-016 1.27222e-014 1.19271e-015 0.012946 0.00231244 -8.4408e-005 2.78299e-015 1.90833e-014 1.19271e-015 3.97569e-016 1.27222e-014 1.19271e-015 0.0163452 0.00303882 -0.000872721 -1.59028e-015 3.18055e-015 -3.97569e-016 3.97569e-016 1.27222e-014 1.19271e-015 0.0145663 0.00367123 -0.00325827 6.47549e-006 4.17288e-006 2.45581e-006 3.97569e-016 1.27222e-014 1.19271e-015 -4.41391e-032 6.36111e-015 3.97569e-016 -3.97569e-016 9.54166e-015 1.19271e-015 -36.649 6.92541 -47.6409 9.72966 30.1536 -20.873 -5.74717 43.9643 16.0777 -1.98785e-015 -3.18055e-015 -4.96962e-016 29.8692 9.53519 47.4032 -7.49314 24.4199 19.9607 4.58477 43.6346 -14.2518 1.29284e-006 -2.63686e-006 1.11492e-006 
39.7576 -6.13633 47.3776 1.36919e-007 74.3977 -1.07162e-007 -0.267902 1.68736 -0.194654 -0.530409 3.37555 -0.381656 -0.530411 3.37554 -0.381657 1.9536e-005 -24.0064 1.14024e-005 -0.0600572 -22.3427 -0.0243369 2.3972 2.74262 -14.5113 57.8635 -20.101 62.5544 106.245 -59.7235 76.1147 -1.00307 5.56474 4.58347 3.18082e-006 2.63189e-006 -1.35696e-006 -7.95139e-016 6.36111e-015 7.95139e-016 1.59028e-015 3.18055e-015 7.95139e-016 3.18082e-006 2.63189e-006 -1.35696e-006 -0.0128061 0.00232583 8.58472e-005 -0 0 3.18055e-015 3.18082e-006 2.63189e-006 -1.35696e-006 -0.0160424 0.00299442 0.000856394 -7.95139e-016 0 -1.98785e-015 3.18082e-006 2.63189e-006 -1.35696e-006 -0.0126023 0.00312158 0.00283208 1.10348e-031 3.18055e-015 -1.98785e-015 3.18082e-006 2.63189e-006 -1.35696e-006 -7.95139e-016 6.36111e-015 7.95139e-016 1.59028e-015 3.18055e-015 7.95139e-016 4.94008 -0.739915 2.01212 -46.1678 -29.0442 -50.6457 -106.746 -55.0956 -77.7552 6.23449 2.34266 2.25998 -4.41391e-032 -3.18055e-015 -7.95139e-016 4.41391e-032 3.18055e-015 -7.95139e-016 1.39346e-006 -5.34964e-006 6.54971e-007 -4.41391e-032 -3.18055e-015 -7.95139e-016 0.0129402 0.00231274 -8.42797e-005 -7.95139e-016 6.36111e-015 7.95139e-016 -4.41391e-032 -3.18055e-015 -7.95139e-016 0.0163231 0.00303228 -0.00086782 1.19271e-015 1.90833e-014 1.19271e-015 -4.41391e-032 -3.18055e-015 -7.95139e-016 0.0145524 0.00366794 -0.00325451 -2.64042e-006 3.5203e-006 -2.48675e-006 -4.41391e-032 -3.18055e-015 -7.95139e-016 4.41391e-032 3.18055e-015 -7.95139e-016 1.39346e-006 -5.34964e-006 6.54971e-007 -36.7214 7.0924 -47.6219 9.73721 30.1482 -20.876 -5.85734 43.9136 16.2139 -7.29771e-006 5.23077e-007 -2.10288e-006 29.9517 9.69785 47.395 -7.49068 24.3786 19.9605 4.6694 43.568 -14.3787 -3.41292e-006 1.35695e-005 7.08175e-006 
39.7582 -6.15853 47.369 -4.74544e-007 74.1976 3.06323e-007 -0.267255 1.7738 -0.193285 -0.528897 3.54847 -0.378555 -0.528897 3.54848 -0.378555 4.24925e-007 -24.0063 2.74584e-007 -0.0600579 -22.3427 -0.024337 1.94557 2.5793 -14.2752 58.4166 -20.929 62.6865 105.742 -59.7381 75.6827 -1.31156 5.28775 3.8867 7.95139e-016 -3.18055e-015 -1.59028e-015 2.02323e-007 7.16422e-007 -3.72759e-006 8.43495e-007 2.49392e-006 -1.45162e-006 7.95139e-016 -3.18055e-015 -1.59028e-015 -0.0128202 0.00233166 8.40676e-005 2.97149e-006 2.73618e-006 2.36706e-006 7.95139e-016 -3.18055e-015 -1.59028e-015 -0.0160568 0.00300422 0.000859562 -1.32417e-031 -3.18055e-015 -2.38542e-015 7.95139e-016 -3.18055e-015 -1.59028e-015 -0.0126355 0.0031335 0.00283762 -8.82781e-032 -3.18055e-015 -1.59028e-015 7.95139e-016 -3.18055e-015 -1.59028e-015 2.02323e-007 7.16422e-007 -3.72759e-006 8.43495e-007 2.49392e-006 -1.45162e-006 5.13033 -0.704671 2.12415 -46.5187 -29.3652 -50.8183 -106.457 -55.0663 -77.5189 6.24473 2.2798 2.56904 5.96354e-015 -9.54166e-015 -1.03368e-014 2.32903e-007 -7.45242e-007 -3.04923e-006 -2.6897e-006 1.98494e-006 -2.09517e-006 5.96354e-015 -9.54166e-015 -1.03368e-014 0.0129489 0.00231903 -8.7888e-005 1.19271e-015 9.54166e-015 3.97569e-016 5.96354e-015 -9.54166e-015 -1.03368e-014 0.0163514 0.0030358 -0.000887194 1.19271e-015 -6.36111e-015 -3.97569e-016 5.96354e-015 -9.54166e-015 -1.03368e-014 0.0145641 0.00367233 -0.00326117 1.78015e-007 -9.8699e-007 -2.66133e-006 5.96354e-015 -9.54166e-015 -1.03368e-014 2.32903e-007 -7.45242e-007 -3.04923e-006 -2.6897e-006 1.98494e-006 -2.09517e-006 -36.7939 7.25939 -47.6027 9.74479 30.1429 -20.8789 -5.96718 43.8626 16.3497 -5.36094e-007 1.13218e-005 -2.37156e-006 30.0342 9.86048 47.3867 -7.48819 24.3373 19.9603 4.75368 43.5011 -14.5054 -1.15888e-005 -3.05229e-006 6.12753e-006 
